<svg xmlns="http://www.w3.org/2000/svg" viewBox="0 0 1280 600" width="1280" height="600">
  <defs>
    <radialGradient id="bg" cx="40%" cy="50%" r="70%">
      <stop offset="0%" stop-color="#ffffff"/>
      <stop offset="60%" stop-color="#e8eef6"/>
      <stop offset="100%" stop-color="#d6e0ef"/>
    </radialGradient>
    <linearGradient id="body" x1="0" y1="0" x2="0" y2="1">
      <stop offset="0" stop-color="#1a3a6b"/>
      <stop offset="1" stop-color="#0f2548"/>
    </linearGradient>
  </defs>
  <rect width="1280" height="600" fill="url(#bg)"/>
  <g transform="translate(760 60)" fill="url(#body)" opacity="0.88">
    <path d="M120,20 C150,20 175,45 175,75 C175,105 150,130 120,130 C90,130 65,105 65,75 C65,45 90,20 120,20 Z"/>
    <path d="M70,140 C90,135 150,135 175,145 C200,160 215,200 215,260 C215,320 230,370 255,410 C230,440 195,455 155,455 L155,520 L115,520 L115,455 C85,455 60,445 40,425 C55,380 70,340 75,300 C70,260 55,210 55,170 C55,155 60,145 70,140 Z"/>
  </g>
  <!-- Network dots -->
  <g fill="#1a3a6b">
    <circle cx="870" cy="80" r="2.5"/>
    <circle cx="920" cy="120" r="2"/>
    <circle cx="980" cy="70" r="3"/>
    <circle cx="1040" cy="130" r="2"/>
    <circle cx="1100" cy="90" r="2.5"/>
    <circle cx="1150" cy="160" r="2"/>
    <circle cx="1200" cy="110" r="3"/>
    <circle cx="1040" cy="220" r="2.5"/>
    <circle cx="1100" cy="260" r="2"/>
    <circle cx="1160" cy="300" r="3"/>
    <circle cx="1220" cy="240" r="2"/>
    <circle cx="1080" cy="360" r="2.5"/>
    <circle cx="1140" cy="420" r="2"/>
    <circle cx="1200" cy="380" r="3"/>
    <circle cx="950" cy="480" r="2"/>
    <circle cx="1020" cy="520" r="2.5"/>
  </g>
  <g stroke="#1a3a6b" stroke-opacity="0.35" stroke-width="0.7" fill="none">
    <line x1="870" y1="80" x2="980" y2="70"/>
    <line x1="980" y1="70" x2="1100" y2="90"/>
    <line x1="1100" y1="90" x2="1200" y2="110"/>
    <line x1="1040" y1="220" x2="1160" y2="300"/>
    <line x1="1080" y1="360" x2="1200" y2="380"/>
    <line x1="920" y1="120" x2="1040" y2="130"/>
  </g>
  <text x="60" y="560" fill="#64748b" font-family="system-ui" font-size="12" opacity="0.5">placeholder — replace with /fertility.webp</text>
</svg>
